<svg width="35" height="35" viewBox="0 0 35 35" fill="none" xmlns="http://www.w3.org/2000/svg">
<g filter="url(#filter0_d_954_749)">
<path d="M31 13.5827C31 6.08099 24.9561 0 17.5017 0C10.0439 0.00168729 4 6.08099 4 13.5844C4 20.3622 8.93701 25.9809 15.3892 27V17.509H11.964V13.5844H15.3926V10.5894C15.3926 7.18616 17.4089 5.30652 20.4916 5.30652C21.9696 5.30652 23.5135 5.57143 23.5135 5.57143V8.91226H21.811C20.1355 8.91226 19.6125 9.96007 19.6125 11.0349V13.5827H23.3549L22.7576 17.5073H19.6108V26.9983C26.063 25.9792 31 20.3605 31 13.5827Z" fill="url(#paint0_linear_954_749)" shape-rendering="crispEdges"/>
</g>
<defs>
<filter id="filter0_d_954_749" x="0" y="0" width="35" height="35" filterUnits="userSpaceOnUse" color-interpolation-filters="sRGB">
<feFlood flood-opacity="0" result="BackgroundImageFix"/>
<feColorMatrix in="SourceAlpha" type="matrix" values="0 0 0 0 0 0 0 0 0 0 0 0 0 0 0 0 0 0 127 0" result="hardAlpha"/>
<feOffset dy="4"/>
<feGaussianBlur stdDeviation="2"/>
<feComposite in2="hardAlpha" operator="out"/>
<feColorMatrix type="matrix" values="0 0 0 0 0 0 0 0 0 0 0 0 0 0 0 0 0 0 0.25 0"/>
<feBlend mode="normal" in2="BackgroundImageFix" result="effect1_dropShadow_954_749"/>
<feBlend mode="normal" in="SourceGraphic" in2="effect1_dropShadow_954_749" result="shape"/>
</filter>
<linearGradient id="paint0_linear_954_749" x1="17.5" y1="0" x2="17.5" y2="27" gradientUnits="userSpaceOnUse">
<stop stop-color="white"/>
<stop offset="1" stop-color="#FFB800" stop-opacity="0.78"/>
</linearGradient>
</defs>
</svg>
