<svg width="35" height="35" viewBox="0 0 35 35" fill="none" xmlns="http://www.w3.org/2000/svg">
<g filter="url(#filter0_d_954_752)">
<path d="M17.5 0C10.0412 0 4 6.04125 4 13.5C4 19.4738 7.86437 24.5194 13.2306 26.3081C13.9056 26.4263 14.1587 26.0213 14.1587 25.6669C14.1587 25.3463 14.1419 24.2831 14.1419 23.1525C10.75 23.7769 9.8725 22.3256 9.6025 21.5663C9.45062 21.1781 8.7925 19.98 8.21875 19.6594C7.74625 19.4062 7.07125 18.7819 8.20188 18.765C9.265 18.7481 10.0244 19.7438 10.2775 20.1488C11.4925 22.1906 13.4331 21.6169 14.2094 21.2625C14.3275 20.385 14.6819 19.7944 15.07 19.4569C12.0662 19.1194 8.9275 17.955 8.9275 12.7913C8.9275 11.3231 9.45062 10.1081 10.3113 9.16313C10.1762 8.82563 9.70375 7.44188 10.4462 5.58563C10.4462 5.58563 11.5769 5.23125 14.1587 6.96938C15.2387 6.66563 16.3863 6.51375 17.5338 6.51375C18.6813 6.51375 19.8288 6.66563 20.9088 6.96938C23.4906 5.21438 24.6213 5.58563 24.6213 5.58563C25.3638 7.44188 24.8913 8.82563 24.7563 9.16313C25.6169 10.1081 26.14 11.3063 26.14 12.7913C26.14 17.9719 22.9844 19.1194 19.9806 19.4569C20.47 19.8788 20.8919 20.6888 20.8919 21.9544C20.8919 23.76 20.875 25.2113 20.875 25.6669C20.875 26.0213 21.1281 26.4431 21.8031 26.3081C24.4833 25.4036 26.8122 23.6813 28.462 21.3836C30.1119 19.0859 30.9995 16.3287 31 13.5C31 6.04125 24.9587 0 17.5 0Z" fill="url(#paint0_linear_954_752)" shape-rendering="crispEdges"/>
</g>
<defs>
<filter id="filter0_d_954_752" x="0" y="0" width="35" height="34.334" filterUnits="userSpaceOnUse" color-interpolation-filters="sRGB">
<feFlood flood-opacity="0" result="BackgroundImageFix"/>
<feColorMatrix in="SourceAlpha" type="matrix" values="0 0 0 0 0 0 0 0 0 0 0 0 0 0 0 0 0 0 127 0" result="hardAlpha"/>
<feOffset dy="4"/>
<feGaussianBlur stdDeviation="2"/>
<feComposite in2="hardAlpha" operator="out"/>
<feColorMatrix type="matrix" values="0 0 0 0 0 0 0 0 0 0 0 0 0 0 0 0 0 0 0.25 0"/>
<feBlend mode="normal" in2="BackgroundImageFix" result="effect1_dropShadow_954_752"/>
<feBlend mode="normal" in="SourceGraphic" in2="effect1_dropShadow_954_752" result="shape"/>
</filter>
<linearGradient id="paint0_linear_954_752" x1="17.5" y1="0" x2="17.5" y2="26.3339" gradientUnits="userSpaceOnUse">
<stop stop-color="white"/>
<stop offset="1" stop-color="#FFB800" stop-opacity="0.78"/>
</linearGradient>
</defs>
</svg>
