<svg width="35" height="35" viewBox="0 0 35 35" fill="none" xmlns="http://www.w3.org/2000/svg">
<g filter="url(#filter0_d_954_751)">
<path d="M17.5 0C13.8364 0 13.3758 0.016875 11.9363 0.081C10.4969 0.1485 9.51644 0.374625 8.6575 0.70875C7.75653 1.04763 6.94045 1.57921 6.26631 2.26631C5.57963 2.9408 5.04812 3.75678 4.70875 4.6575C4.37462 5.51475 4.14681 6.49687 4.081 7.93125C4.01688 9.37406 4 9.83306 4 13.5017C4 17.1669 4.01688 17.6259 4.081 19.0654C4.1485 20.5031 4.37462 21.4836 4.70875 22.3425C5.05469 23.2301 5.51538 23.9827 6.26631 24.7337C7.01556 25.4846 7.76819 25.947 8.65581 26.2913C9.51644 26.6254 10.4952 26.8532 11.9329 26.919C13.3741 26.9831 13.8331 27 17.5 27C21.1669 27 21.6243 26.9831 23.0654 26.919C24.5014 26.8515 25.4853 26.6254 26.3442 26.2913C27.2446 25.9522 28.0601 25.4206 28.7337 24.7337C29.4846 23.9827 29.9453 23.2301 30.2913 22.3425C30.6237 21.4836 30.8515 20.5031 30.919 19.0654C30.9831 17.6259 31 17.1669 31 13.5C31 9.83306 30.9831 9.37406 30.919 7.93294C30.8515 6.49688 30.6237 5.51475 30.2913 4.6575C29.9519 3.75676 29.4204 2.94077 28.7337 2.26631C28.0598 1.57895 27.2436 1.04734 26.3425 0.70875C25.4819 0.374625 24.4998 0.146812 23.0637 0.081C21.6226 0.016875 21.1653 0 17.4966 0H17.5017H17.5ZM16.2901 2.43338H17.5017C21.1062 2.43338 21.5331 2.44519 22.9557 2.511C24.2719 2.57006 24.9874 2.79113 25.4633 2.97506C26.0928 3.21975 26.5433 3.51338 27.0158 3.98587C27.4883 4.45837 27.7803 4.90725 28.0249 5.53837C28.2106 6.01256 28.4299 6.72806 28.489 8.04431C28.5548 9.46688 28.5683 9.89381 28.5683 13.4966C28.5683 17.0994 28.5548 17.5281 28.489 18.9506C28.4299 20.2669 28.2089 20.9807 28.0249 21.4566C27.8085 22.0427 27.463 22.5727 27.0141 23.0074C26.5416 23.4799 26.0928 23.7718 25.4616 24.0165C24.9891 24.2021 24.2736 24.4215 22.9557 24.4823C21.5331 24.5464 21.1062 24.5616 17.5017 24.5616C13.8972 24.5616 13.4686 24.5464 12.046 24.4823C10.7298 24.4215 10.0159 24.2021 9.54006 24.0165C8.95365 23.8004 8.42315 23.4555 7.98756 23.0074C7.53827 22.5721 7.19228 22.0415 6.97506 21.4549C6.79113 20.9807 6.57006 20.2652 6.511 18.9489C6.44688 17.5264 6.43338 17.0994 6.43338 13.4932C6.43338 9.88875 6.44688 9.4635 6.511 8.04094C6.57175 6.72469 6.79113 6.00919 6.97675 5.53331C7.22144 4.90387 7.51506 4.45331 7.98756 3.98081C8.46006 3.50831 8.90894 3.21638 9.54006 2.97169C10.0159 2.78606 10.7298 2.56669 12.046 2.50594C13.2914 2.44856 13.774 2.43169 16.2901 2.43V2.43338ZM24.7073 4.67438C24.4946 4.67438 24.2839 4.71628 24.0874 4.79769C23.8908 4.8791 23.7122 4.99843 23.5618 5.14886C23.4114 5.29929 23.292 5.47788 23.2106 5.67443C23.1292 5.87098 23.0873 6.08163 23.0873 6.29437C23.0873 6.50712 23.1292 6.71777 23.2106 6.91432C23.292 7.11087 23.4114 7.28946 23.5618 7.43989C23.7122 7.59032 23.8908 7.70965 24.0874 7.79106C24.2839 7.87247 24.4946 7.91438 24.7073 7.91438C25.137 7.91438 25.549 7.7437 25.8528 7.43989C26.1566 7.13608 26.3273 6.72403 26.3273 6.29437C26.3273 5.86472 26.1566 5.45267 25.8528 5.14886C25.549 4.84505 25.137 4.67438 24.7073 4.67438ZM17.5017 6.56775C16.5821 6.5534 15.6689 6.72213 14.8152 7.06411C13.9614 7.40609 13.1842 7.91449 12.5289 8.55971C11.8735 9.20493 11.3531 9.97408 10.9978 10.8224C10.6425 11.6707 10.4596 12.5812 10.4596 13.5008C10.4596 14.4205 10.6425 15.331 10.9978 16.1793C11.3531 17.0276 11.8735 17.7968 12.5289 18.442C13.1842 19.0872 13.9614 19.5956 14.8152 19.9376C15.6689 20.2796 16.5821 20.4483 17.5017 20.4339C19.3217 20.4055 21.0576 19.6626 22.3346 18.3655C23.6117 17.0684 24.3275 15.3211 24.3275 13.5008C24.3275 11.6806 23.6117 9.93332 22.3346 8.6362C21.0576 7.33908 19.3217 6.59615 17.5017 6.56775ZM17.5017 8.99944C18.6953 8.99944 19.84 9.4736 20.6841 10.3176C21.5281 11.1616 22.0023 12.3064 22.0023 13.5C22.0023 14.6936 21.5281 15.8384 20.6841 16.6824C19.84 17.5264 18.6953 18.0006 17.5017 18.0006C16.3081 18.0006 15.1633 17.5264 14.3193 16.6824C13.4753 15.8384 13.0011 14.6936 13.0011 13.5C13.0011 12.3064 13.4753 11.1616 14.3193 10.3176C15.1633 9.4736 16.3081 8.99944 17.5017 8.99944Z" fill="url(#paint0_linear_954_751)" shape-rendering="crispEdges"/>
</g>
<defs>
<filter id="filter0_d_954_751" x="0" y="0" width="35" height="35" filterUnits="userSpaceOnUse" color-interpolation-filters="sRGB">
<feFlood flood-opacity="0" result="BackgroundImageFix"/>
<feColorMatrix in="SourceAlpha" type="matrix" values="0 0 0 0 0 0 0 0 0 0 0 0 0 0 0 0 0 0 127 0" result="hardAlpha"/>
<feOffset dy="4"/>
<feGaussianBlur stdDeviation="2"/>
<feComposite in2="hardAlpha" operator="out"/>
<feColorMatrix type="matrix" values="0 0 0 0 0 0 0 0 0 0 0 0 0 0 0 0 0 0 0.25 0"/>
<feBlend mode="normal" in2="BackgroundImageFix" result="effect1_dropShadow_954_751"/>
<feBlend mode="normal" in="SourceGraphic" in2="effect1_dropShadow_954_751" result="shape"/>
</filter>
<linearGradient id="paint0_linear_954_751" x1="17.5" y1="0" x2="17.5" y2="27" gradientUnits="userSpaceOnUse">
<stop stop-color="white"/>
<stop offset="1" stop-color="#FFB800" stop-opacity="0.78"/>
</linearGradient>
</defs>
</svg>
