<svg width="35" height="27" viewBox="0 0 35 27" fill="none" xmlns="http://www.w3.org/2000/svg">
<g filter="url(#filter0_d_954_750)">
<path d="M17.5869 0H17.7371C19.1243 0.00506282 26.1532 0.0556912 28.0484 0.565348C28.6213 0.720892 29.1434 1.02408 29.5624 1.4446C29.9815 1.86513 30.2828 2.38827 30.4363 2.96175C30.6068 3.60304 30.7266 4.4519 30.8076 5.32777L30.8245 5.50328L30.8616 5.94206L30.8751 6.11757C30.9848 7.66004 30.9983 9.10463 31 9.42021V9.54678C30.9983 9.87418 30.9831 11.4166 30.8616 13.0233L30.8481 13.2004L30.8329 13.376C30.7485 14.3413 30.6237 15.2998 30.4363 16.0053C30.2833 16.579 29.9821 17.1023 29.563 17.5229C29.1439 17.9435 28.6215 18.2466 28.0484 18.4017C26.0908 18.9282 18.6501 18.9653 17.619 18.967H17.3793C16.8579 18.967 14.7011 18.9569 12.4397 18.8792L12.1528 18.8691L12.006 18.8624L11.7174 18.8506L11.4288 18.8387C9.5556 18.756 7.7718 18.6227 6.94993 18.4C6.37698 18.245 5.85479 17.9423 5.43569 17.522C5.01659 17.1017 4.71529 16.5786 4.56197 16.0053C4.37465 15.3015 4.24977 14.3413 4.16539 13.376L4.15188 13.1988L4.13838 13.0233C4.0551 11.8797 4.00894 10.7338 4 9.58729L4 9.37971C4.00338 9.01688 4.01688 7.76299 4.10801 6.37915L4.11982 6.20533L4.12488 6.11757L4.13838 5.94206L4.17551 5.50328L4.19239 5.32777C4.27339 4.4519 4.39321 3.60135 4.56366 2.96175C4.71672 2.38804 5.0179 1.86465 5.43702 1.44405C5.85614 1.02345 6.37846 0.720426 6.95162 0.565348C7.77349 0.345959 9.55728 0.210951 11.4305 0.12657L11.7174 0.114757L12.0077 0.104632L12.1528 0.0995689L12.4414 0.0877558C14.0475 0.0360721 15.6543 0.00737967 17.2612 0.00168768H17.5869V0ZM14.8007 5.41721V13.5481L21.8161 9.48434L14.8007 5.41721Z" fill="url(#paint0_linear_954_750)" shape-rendering="crispEdges"/>
</g>
<defs>
<filter id="filter0_d_954_750" x="0" y="0" width="35" height="26.9668" filterUnits="userSpaceOnUse" color-interpolation-filters="sRGB">
<feFlood flood-opacity="0" result="BackgroundImageFix"/>
<feColorMatrix in="SourceAlpha" type="matrix" values="0 0 0 0 0 0 0 0 0 0 0 0 0 0 0 0 0 0 127 0" result="hardAlpha"/>
<feOffset dy="4"/>
<feGaussianBlur stdDeviation="2"/>
<feComposite in2="hardAlpha" operator="out"/>
<feColorMatrix type="matrix" values="0 0 0 0 0 0 0 0 0 0 0 0 0 0 0 0 0 0 0.25 0"/>
<feBlend mode="normal" in2="BackgroundImageFix" result="effect1_dropShadow_954_750"/>
<feBlend mode="normal" in="SourceGraphic" in2="effect1_dropShadow_954_750" result="shape"/>
</filter>
<linearGradient id="paint0_linear_954_750" x1="17.5" y1="0" x2="17.5" y2="18.967" gradientUnits="userSpaceOnUse">
<stop stop-color="white"/>
<stop offset="1" stop-color="#FFB800" stop-opacity="0.78"/>
</linearGradient>
</defs>
</svg>
