<svg width="587" height="589" viewBox="0 0 587 589" fill="none" xmlns="http://www.w3.org/2000/svg">
<path d="M37.7593 1.11243C16.5355 5.30478 1.73123 22.7293 0.159094 45.5252C-1.54405 70.5484 10.509 99.2398 32.3879 121.905C64.0926 154.789 104.968 160.684 127.502 135.53C157.635 102.122 129.205 31.507 75.4905 7.00793C60.5553 0.195343 50.5984 -1.37679 37.7593 1.11243Z" fill="url(#paint0_linear_953_59)"/>
<path d="M37.7593 1.11243C16.5355 5.30478 1.73123 22.7293 0.159094 45.5252C-1.54405 70.5484 10.509 99.2398 32.3879 121.905C64.0926 154.789 104.968 160.684 127.502 135.53C157.635 102.122 129.205 31.507 75.4905 7.00793C60.5553 0.195343 50.5984 -1.37679 37.7593 1.11243Z" fill="url(#paint1_linear_953_59)"/>
<path d="M542.938 65.3071C522.37 70.4165 501.015 93.4745 491.451 120.856C488.438 129.765 487.914 133.433 487.914 145.093C487.914 160.421 489.486 165.269 496.56 173.26C503.373 180.99 509.792 183.741 521.845 183.741C530.754 183.741 533.505 183.217 539.925 179.942C566.258 167.103 588.661 127.799 586.434 98.8459C585.124 83.7797 577.525 71.7266 566.258 67.0102C560.494 64.521 549.096 63.7349 542.938 65.3071Z" fill="url(#paint2_linear_953_59)"/>
<path d="M379.698 72.2514C369.873 75.1336 362.536 79.588 354.675 87.3177C345.111 96.8815 341.05 105.135 336.989 123.215C330.831 150.203 326.639 160.16 316.551 170.772C304.891 183.087 289.563 185.183 275.938 176.536C257.989 165.138 246.329 162.518 231.001 166.71C209.908 172.344 196.283 190.292 196.283 212.564C196.283 229.727 202.833 241.911 218.031 252.916C234.145 264.707 238.992 274.009 235.586 286.717C233.621 294.053 225.105 302.7 217.638 304.927C211.218 306.892 202.44 305.844 196.676 302.438C194.449 300.997 188.291 294.446 182.789 287.634C165.888 266.541 143.354 246.496 128.943 239.946C108.505 230.644 85.4473 234.443 69.4639 249.641C49.1572 269.03 46.7989 300.08 63.9614 321.828C70.643 330.343 77.3246 334.405 106.671 348.161C120.296 354.581 133.266 361.262 135.625 363.227C142.437 368.599 145.581 375.935 144.926 385.368C144.533 392.836 143.485 395.063 130.908 416.287C108.374 454.149 105.23 462.665 105.361 487.033C105.361 504.064 108.243 516.641 115.187 530.66C130.777 561.709 157.11 581.623 189.863 587.387C223.271 593.152 261.395 579.265 282.881 553.587C286.287 549.394 295.982 534.459 304.367 520.441C312.621 506.423 321.529 492.797 324.15 490.308C335.81 478.648 355.33 474.587 371.183 480.613C377.733 482.972 381.664 485.985 394.11 498.038C427.387 530.267 433.151 535.245 442.846 540.092C460.401 548.608 476.909 550.311 494.988 545.202C504.29 542.451 509.662 539.699 519.618 532.232C548.965 510.091 558.398 470.788 541.759 439.345C537.567 431.222 526.038 418.907 508.482 403.579C494.988 391.788 491.713 384.582 491.713 367.158C491.713 348.554 494.202 343.707 515.033 322.221C532.72 304.01 535.602 299.949 538.746 289.337C548.441 256.453 525.252 223.045 491.582 221.342C470.882 220.294 457.912 226.583 439.964 246.496C437.474 249.248 433.544 252.392 431.186 253.309C422.277 257.108 409.176 254.488 403.018 247.675C397.123 241.125 395.158 229.858 398.564 221.735C399.612 219.246 410.617 204.704 423.063 189.375C437.474 171.558 447.038 158.326 449.658 152.954C453.458 144.963 453.72 143.521 453.72 129.372C453.72 116.795 453.196 113.127 450.838 107.1C444.811 92.4271 431.972 79.719 417.692 74.0855C408.783 70.6793 388.607 69.6312 379.698 72.2514Z" fill="url(#paint3_linear_953_59)"/>
<defs>
<linearGradient id="paint0_linear_953_59" x1="19.1455" y1="123.405" x2="158.624" y2="-0.531119" gradientUnits="userSpaceOnUse">
<stop offset="0.0416667" stop-color="#FF8A00"/>
<stop offset="1" stop-color="#5CFF58"/>
</linearGradient>
<linearGradient id="paint1_linear_953_59" x1="19.1455" y1="123.405" x2="158.624" y2="-0.531119" gradientUnits="userSpaceOnUse">
<stop offset="0.0416667" stop-color="#FF8A00"/>
<stop offset="1" stop-color="#5CFF58"/>
</linearGradient>
<linearGradient id="paint2_linear_953_59" x1="501.43" y1="161.888" x2="609.418" y2="76.0542" gradientUnits="userSpaceOnUse">
<stop offset="0.0416667" stop-color="#FF8A00"/>
<stop offset="1" stop-color="#5CFF58"/>
</linearGradient>
<linearGradient id="paint3_linear_953_59" x1="120.644" y1="493.772" x2="600.509" y2="51.0501" gradientUnits="userSpaceOnUse">
<stop offset="0.0416667" stop-color="#FF8A00"/>
<stop offset="1" stop-color="#5CFF58"/>
</linearGradient>
</defs>
</svg>
