<svg width="148" height="148" viewBox="0 0 148 148" fill="none" xmlns="http://www.w3.org/2000/svg">
<g clip-path="url(#clip0_954_738)">
<path d="M73.8075 0.109375C32.8658 0.109375 -0.34668 33.3041 -0.34668 74.2635C-0.34668 115.223 32.8516 148.418 73.8075 148.418C114.763 148.418 147.962 115.219 147.962 74.2635C147.962 33.3076 114.753 0.109375 73.8075 0.109375ZM118.307 72.5737C117.291 84.2066 112.321 90.2923 108.325 93.344C104.328 96.3957 99.5297 97.7362 95.3906 96.9947C93.4725 96.6512 91.6407 95.9332 90.0001 94.8817C88.3595 93.8302 86.9422 92.4657 85.829 90.8662C81.6343 94.9465 75.994 97.1988 70.1426 97.1301C67.559 97.1499 65.0003 96.6259 62.6325 95.5922C60.2647 94.5585 58.1409 93.0382 56.3991 91.13C52.342 86.7022 50.3384 80.3064 50.9373 73.579C52.0069 61.1012 61.9571 53.1189 71.2121 51.6608C80.9092 50.1314 89.8326 53.9924 93.6366 58.5985L95.0092 60.2598L92.7489 78.2208C92.3246 83.3332 93.9183 86.5917 97.1304 87.1692C97.9825 87.319 100.018 87.1229 102.253 85.4116C104.649 83.5756 107.651 79.7075 108.35 71.6967C109.188 62.2349 106.799 54.1599 101.487 48.3488C95.9646 42.3238 87.551 39.1366 77.1623 39.1366C57.9107 39.1366 40.8659 54.9763 39.1654 74.4311C38.3525 83.7717 41.1868 92.4991 47.1512 99.0054C52.9837 105.373 61.1656 108.895 70.2032 108.895C76.9769 108.895 81.116 108.164 87.8433 105.765C89.0905 105.32 90.4631 105.39 91.6592 105.957C92.8553 106.525 93.7769 107.544 94.2213 108.792C94.6657 110.039 94.5964 111.411 94.0288 112.607C93.4612 113.804 92.4417 114.725 91.1945 115.17C83.4155 117.94 78.1177 118.877 70.2032 118.877C58.3385 118.877 47.5398 114.221 39.7928 105.768C31.9318 97.1729 28.1599 85.7432 29.2223 73.579C30.2597 61.6966 35.7999 50.5378 44.8268 42.1633C53.8536 33.7889 65.3511 29.1543 77.1623 29.1543C90.4244 29.1543 101.38 33.4609 108.845 41.6072C116.008 49.4183 119.366 60.4131 118.307 72.5737Z" fill="white"/>
<path d="M72.7773 61.5225C67.4903 62.3531 61.5258 67.1696 60.8912 74.4495C60.5347 78.3926 61.6043 82.0147 63.7683 84.3855C64.5747 85.2738 65.5615 85.9798 66.6626 86.4563C67.7637 86.9327 68.9538 87.1687 70.1534 87.1484C77.3941 87.1484 82.535 81.8222 83.2551 73.5797C83.277 73.331 83.3175 73.0843 83.3763 72.8417L84.5172 63.7685C80.9831 61.6801 76.8327 60.8861 72.7773 61.5225Z" fill="white"/>
</g>
<defs>
<clipPath id="clip0_954_738">
<rect width="148" height="148" fill="white"/>
</clipPath>
</defs>
</svg>
