<svg width="189" height="148" viewBox="0 0 189 148" fill="none" xmlns="http://www.w3.org/2000/svg">
<g clip-path="url(#clip0_954_742)">
<path d="M164.818 0H23.5455C17.3029 0.00667777 11.3179 2.4895 6.90368 6.90368C2.4895 11.3179 0.00667777 17.3029 0 23.5455V124.455C0.00667777 130.697 2.4895 136.682 6.90368 141.096C11.3179 145.51 17.3029 147.993 23.5455 148H164.818C171.061 147.993 177.046 145.51 181.46 141.096C185.874 136.682 188.357 130.697 188.364 124.455V23.5455C188.357 17.3029 185.874 11.3179 181.46 6.90368C177.046 2.4895 171.061 0.00667777 164.818 0ZM158.856 38.9467L98.3107 86.0376C97.13 86.9554 95.6772 87.4537 94.1818 87.4537C92.6864 87.4537 91.2336 86.9554 90.0529 86.0376L29.5075 38.9467C28.7961 38.4095 28.1986 37.7363 27.7497 36.9662C27.3008 36.1961 27.0094 35.3444 26.8925 34.4607C26.7755 33.577 26.8354 32.6789 27.0686 31.8185C27.3018 30.9581 27.7036 30.1527 28.2508 29.449C28.7979 28.7453 29.4795 28.1573 30.2558 27.7193C31.0322 27.2812 31.8878 27.0018 32.7731 26.8974C33.6584 26.7929 34.5556 26.8654 35.4126 27.1106C36.2696 27.3559 37.0693 27.769 37.7652 28.326L94.1818 72.2047L150.598 28.326C152.009 27.2607 153.782 26.7934 155.535 27.0253C157.288 27.2572 158.878 28.1696 159.963 29.5652C161.048 30.9608 161.541 32.7274 161.333 34.483C161.126 36.2386 160.236 37.8421 158.856 38.9467Z" fill="white"/>
</g>
<defs>
<clipPath id="clip0_954_742">
<rect width="188.364" height="148" fill="white"/>
</clipPath>
</defs>
</svg>
