<svg width="148" height="148" viewBox="0 0 148 148" fill="none" xmlns="http://www.w3.org/2000/svg">
<path d="M0 71.7825C0 30.5353 32.3102 0 74 0C115.69 0 148 30.5353 148 71.7825C148 113.03 115.69 143.565 74 143.565C66.5075 143.565 59.3295 142.575 52.577 140.725C51.2677 140.361 49.8728 140.459 48.6273 141.003L33.9382 147.496C33.0511 147.888 32.0814 148.055 31.1144 147.984C30.1474 147.913 29.2127 147.605 28.3924 147.088C27.5721 146.571 26.8913 145.861 26.41 145.019C25.9286 144.177 25.6614 143.23 25.6317 142.261L25.2248 129.098C25.1966 128.296 25.0058 127.509 24.6639 126.784C24.322 126.059 23.8362 125.411 23.236 124.879C8.843 112.003 0 93.3543 0 71.7825ZM51.3005 58.2863L29.563 92.7715C27.4818 96.0831 31.5425 99.811 34.6597 97.4522L58.016 79.7285C58.7842 79.1451 59.7215 78.8276 60.6862 78.8243C61.6508 78.821 62.5903 79.1319 63.3625 79.71L80.6507 92.679C81.8774 93.5989 83.2813 94.2547 84.774 94.605C86.2666 94.9554 87.8157 94.9927 89.3235 94.7145C90.8313 94.4364 92.2652 93.849 93.5346 92.9892C94.8041 92.1294 95.8817 91.0159 96.6995 89.7189L118.437 55.2337C120.527 51.9221 116.458 48.1942 113.34 50.553L89.984 68.2766C89.2158 68.8601 88.2785 69.1776 87.3139 69.1809C86.3492 69.1842 85.4097 68.8733 84.6375 68.2951L67.3493 55.3169C66.1226 54.397 64.7187 53.7413 63.226 53.3909C61.7334 53.0406 60.1843 53.0033 58.6765 53.2814C57.1687 53.5595 55.7348 54.147 54.4654 55.0068C53.1959 55.8666 52.1183 56.9893 51.3005 58.2863Z" fill="#EAEAEA"/>
</svg>
