<svg width="683" height="521" viewBox="0 0 683 521" fill="none" xmlns="http://www.w3.org/2000/svg">
<path d="M0 260.333V506.333C0 514.065 6.26801 520.333 14 520.333H341.333H668.667C676.399 520.333 682.667 514.065 682.667 506.333V260.333V14.3335C682.667 6.60149 676.399 0.333469 668.667 0.333469H341.333H14C6.26803 0.333469 0 6.60148 0 14.3335V260.333ZM201.333 140.333V146.333C201.333 154.065 195.065 160.333 187.333 160.333H141.333H95.3333C87.6014 160.333 81.3333 154.065 81.3333 146.333V140.333V134.333C81.3333 126.601 87.6014 120.333 95.3333 120.333H141.333H187.333C195.065 120.333 201.333 126.601 201.333 134.333V140.333ZM281.333 140.333V146.333C281.333 154.065 275.065 160.333 267.333 160.333H261.333H255.333C247.601 160.333 241.333 154.065 241.333 146.333V140.333V134.333C241.333 126.601 247.601 120.333 255.333 120.333H261.333H267.333C275.065 120.333 281.333 126.601 281.333 134.333V140.333ZM361.333 140.333V146.333C361.333 154.065 355.065 160.333 347.333 160.333H341.333H335.333C327.601 160.333 321.333 154.065 321.333 146.333V140.333V134.333C321.333 126.601 327.601 120.333 335.333 120.333H341.333H347.333C355.065 120.333 361.333 126.601 361.333 134.333V140.333ZM601.333 140.333V146.333C601.333 154.065 595.065 160.333 587.333 160.333H501.333H415.333C407.601 160.333 401.333 154.065 401.333 146.333V140.333V134.333C401.333 126.601 407.601 120.333 415.333 120.333H501.333H587.333C595.065 120.333 601.333 126.601 601.333 134.333V140.333ZM201.333 220.333V226.333C201.333 234.065 195.065 240.333 187.333 240.333H161.333H135.333C127.601 240.333 121.333 234.065 121.333 226.333V220.333V214.333C121.333 206.601 127.601 200.333 135.333 200.333H161.333H187.333C195.065 200.333 201.333 206.601 201.333 214.333V220.333ZM341.333 220.333V226.333C341.333 234.065 335.065 240.333 327.333 240.333H291.333H255.333C247.601 240.333 241.333 234.065 241.333 226.333V220.333V214.333C241.333 206.601 247.601 200.333 255.333 200.333H291.333H327.333C335.065 200.333 341.333 206.601 341.333 214.333V220.333ZM521.333 220.333V226.333C521.333 234.065 515.065 240.333 507.333 240.333H501.333H495.333C487.601 240.333 481.333 234.065 481.333 226.333V220.333V214.333C481.333 206.601 487.601 200.333 495.333 200.333H501.333H507.333C515.065 200.333 521.333 206.601 521.333 214.333V220.333ZM601.333 220.333V226.333C601.333 234.065 595.065 240.333 587.333 240.333H581.333H575.333C567.601 240.333 561.333 234.065 561.333 226.333V220.333V214.333C561.333 206.601 567.601 200.333 575.333 200.333H581.333H587.333C595.065 200.333 601.333 206.601 601.333 214.333V220.333ZM263.067 280.467C274.533 283.267 280 285.267 280 286.467C280 288.6 241.467 443 240.667 444.333C239.867 445.533 202 435.533 202.133 434.2C202.267 433.533 211.2 397.4 222 353.933C238.667 287 242 275 243.867 275.533C245.067 275.933 253.6 278.067 263.067 280.467ZM481.333 300.333V306.333C481.333 314.065 475.065 320.333 467.333 320.333H461.333H455.333C447.601 320.333 441.333 314.065 441.333 306.333V300.333V294.333C441.333 286.601 447.601 280.333 455.333 280.333H461.333H467.333C475.065 280.333 481.333 286.601 481.333 294.333V300.333ZM601.333 300.333V306.333C601.333 314.065 595.065 320.333 587.333 320.333H561.333H535.333C527.601 320.333 521.333 314.065 521.333 306.333V300.333V294.333C521.333 286.601 527.601 280.333 535.333 280.333H561.333H587.333C595.065 280.333 601.333 286.601 601.333 294.333V300.333ZM180 298.6C186.133 305.8 191.867 312.6 192.8 313.667C194.267 315.4 190.933 318.867 168.667 337.667C154.4 349.8 142.8 359.933 142.8 360.333C142.8 360.733 154.4 370.867 168.667 383C190.933 401.8 194.267 405.267 192.8 407C176.667 426.067 168.667 435 167.867 434.733C165.333 433.8 81.3333 361 81.6 360.067C82.1333 358.733 166.933 285.8 168.133 285.667C168.533 285.667 173.867 291.533 180 298.6ZM358.667 322.867C382.133 342.867 401.333 359.8 401.333 360.333C401.333 361.4 316.8 434.067 314.933 434.733C314 435 294.667 413.667 289.733 407C288.4 405.133 292 401.667 314 382.867C328.267 370.867 339.867 360.733 339.867 360.333C339.867 359.933 328.267 349.8 314 337.8C292 319 288.4 315.533 289.733 313.667C294.087 307.784 309.654 290.48 313.895 286.676C314.539 286.098 315.281 286.185 315.953 286.731C320.325 290.277 338.056 305.184 358.667 322.867ZM521.333 380.333V386.333C521.333 394.065 515.065 400.333 507.333 400.333H501.333H495.333C487.601 400.333 481.333 394.065 481.333 386.333V380.333V374.333C481.333 366.602 487.601 360.333 495.333 360.333H501.333H507.333C515.065 360.333 521.333 366.602 521.333 374.333V380.333ZM601.333 380.333V386.333C601.333 394.065 595.065 400.333 587.333 400.333H581.333H575.333C567.601 400.333 561.333 394.065 561.333 386.333V380.333V374.333C561.333 366.602 567.601 360.333 575.333 360.333H581.333H587.333C595.065 360.333 601.333 366.602 601.333 374.333V380.333Z" fill="url(#paint0_linear_914_40)"/>
<defs>
<linearGradient id="paint0_linear_914_40" x1="93.5105" y1="425.039" x2="564.168" y2="-168.485" gradientUnits="userSpaceOnUse">
<stop offset="0.0416667" stop-color="#FF8A00"/>
<stop offset="1" stop-color="#5CFF58"/>
</linearGradient>
</defs>
</svg>
