<svg width="223" height="223" viewBox="0 0 223 223" fill="none" xmlns="http://www.w3.org/2000/svg">
<rect width="27" height="27" rx="13.5" fill="url(#paint0_linear_856_249)"/>
<rect y="49" width="27" height="27" rx="13.5" fill="url(#paint1_linear_856_249)"/>
<rect x="49" width="27" height="27" rx="13.5" fill="url(#paint2_linear_856_249)"/>
<rect x="98" width="27" height="27" rx="13.5" fill="url(#paint3_linear_856_249)"/>
<rect x="147" width="27" height="27" rx="13.5" fill="url(#paint4_linear_856_249)"/>
<rect x="196" width="27" height="27" rx="13.5" fill="url(#paint5_linear_856_249)"/>
<rect x="49" y="49" width="27" height="27" rx="13.5" fill="url(#paint6_linear_856_249)"/>
<rect x="98" y="49" width="27" height="27" rx="13.5" fill="url(#paint7_linear_856_249)"/>
<rect x="147" y="49" width="27" height="27" rx="13.5" fill="url(#paint8_linear_856_249)"/>
<rect x="196" y="49" width="27" height="27" rx="13.5" fill="url(#paint9_linear_856_249)"/>
<rect width="27" height="27" rx="13.5" fill="url(#paint10_linear_856_249)"/>
<rect y="49" width="27" height="27" rx="13.5" fill="url(#paint11_linear_856_249)"/>
<rect x="49" width="27" height="27" rx="13.5" fill="url(#paint12_linear_856_249)"/>
<rect x="98" width="27" height="27" rx="13.5" fill="url(#paint13_linear_856_249)"/>
<rect x="147" width="27" height="27" rx="13.5" fill="url(#paint14_linear_856_249)"/>
<rect x="196" width="27" height="27" rx="13.5" fill="url(#paint15_linear_856_249)"/>
<rect x="49" y="49" width="27" height="27" rx="13.5" fill="url(#paint16_linear_856_249)"/>
<rect x="98" y="49" width="27" height="27" rx="13.5" fill="url(#paint17_linear_856_249)"/>
<rect x="147" y="49" width="27" height="27" rx="13.5" fill="url(#paint18_linear_856_249)"/>
<rect x="196" y="49" width="27" height="27" rx="13.5" fill="url(#paint19_linear_856_249)"/>
<rect y="98" width="27" height="27" rx="13.5" fill="url(#paint20_linear_856_249)"/>
<rect x="49" y="98" width="27" height="27" rx="13.5" fill="url(#paint21_linear_856_249)"/>
<rect x="98" y="98" width="27" height="27" rx="13.5" fill="url(#paint22_linear_856_249)"/>
<rect x="147" y="98" width="27" height="27" rx="13.5" fill="url(#paint23_linear_856_249)"/>
<rect x="196" y="98" width="27" height="27" rx="13.5" fill="url(#paint24_linear_856_249)"/>
<rect y="98" width="27" height="27" rx="13.5" fill="url(#paint25_linear_856_249)"/>
<rect x="49" y="98" width="27" height="27" rx="13.5" fill="url(#paint26_linear_856_249)"/>
<rect x="98" y="98" width="27" height="27" rx="13.5" fill="url(#paint27_linear_856_249)"/>
<rect x="147" y="98" width="27" height="27" rx="13.5" fill="url(#paint28_linear_856_249)"/>
<rect x="196" y="98" width="27" height="27" rx="13.5" fill="url(#paint29_linear_856_249)"/>
<rect y="147" width="27" height="27" rx="13.5" fill="url(#paint30_linear_856_249)"/>
<rect x="49" y="147" width="27" height="27" rx="13.5" fill="url(#paint31_linear_856_249)"/>
<rect x="98" y="147" width="27" height="27" rx="13.5" fill="url(#paint32_linear_856_249)"/>
<rect x="147" y="147" width="27" height="27" rx="13.5" fill="url(#paint33_linear_856_249)"/>
<rect x="196" y="147" width="27" height="27" rx="13.5" fill="url(#paint34_linear_856_249)"/>
<rect y="147" width="27" height="27" rx="13.5" fill="url(#paint35_linear_856_249)"/>
<rect x="49" y="147" width="27" height="27" rx="13.5" fill="url(#paint36_linear_856_249)"/>
<rect x="98" y="147" width="27" height="27" rx="13.5" fill="url(#paint37_linear_856_249)"/>
<rect x="147" y="147" width="27" height="27" rx="13.5" fill="url(#paint38_linear_856_249)"/>
<rect x="196" y="147" width="27" height="27" rx="13.5" fill="url(#paint39_linear_856_249)"/>
<rect y="196" width="27" height="27" rx="13.5" fill="url(#paint40_linear_856_249)"/>
<rect x="49" y="196" width="27" height="27" rx="13.5" fill="url(#paint41_linear_856_249)"/>
<rect x="98" y="196" width="27" height="27" rx="13.5" fill="url(#paint42_linear_856_249)"/>
<rect x="147" y="196" width="27" height="27" rx="13.5" fill="url(#paint43_linear_856_249)"/>
<rect x="196" y="196" width="27" height="27" rx="13.5" fill="url(#paint44_linear_856_249)"/>
<rect y="196" width="27" height="27" rx="13.5" fill="url(#paint45_linear_856_249)"/>
<rect x="49" y="196" width="27" height="27" rx="13.5" fill="url(#paint46_linear_856_249)"/>
<rect x="98" y="196" width="27" height="27" rx="13.5" fill="url(#paint47_linear_856_249)"/>
<rect x="147" y="196" width="27" height="27" rx="13.5" fill="url(#paint48_linear_856_249)"/>
<rect x="196" y="196" width="27" height="27" rx="13.5" fill="url(#paint49_linear_856_249)"/>
<defs>
<linearGradient id="paint0_linear_856_249" x1="13.5" y1="0" x2="13.5" y2="27" gradientUnits="userSpaceOnUse">
<stop stop-color="#FFA800"/>
<stop offset="1"/>
</linearGradient>
<linearGradient id="paint1_linear_856_249" x1="13.5" y1="49" x2="13.5" y2="76" gradientUnits="userSpaceOnUse">
<stop stop-color="#FFA800"/>
<stop offset="1"/>
</linearGradient>
<linearGradient id="paint2_linear_856_249" x1="62.5" y1="0" x2="62.5" y2="27" gradientUnits="userSpaceOnUse">
<stop stop-color="#FFA800"/>
<stop offset="1"/>
</linearGradient>
<linearGradient id="paint3_linear_856_249" x1="111.5" y1="0" x2="111.5" y2="27" gradientUnits="userSpaceOnUse">
<stop stop-color="#FFA800"/>
<stop offset="1"/>
</linearGradient>
<linearGradient id="paint4_linear_856_249" x1="160.5" y1="0" x2="160.5" y2="27" gradientUnits="userSpaceOnUse">
<stop stop-color="#FFA800"/>
<stop offset="1"/>
</linearGradient>
<linearGradient id="paint5_linear_856_249" x1="209.5" y1="0" x2="209.5" y2="27" gradientUnits="userSpaceOnUse">
<stop stop-color="#FFA800"/>
<stop offset="1"/>
</linearGradient>
<linearGradient id="paint6_linear_856_249" x1="62.5" y1="49" x2="62.5" y2="76" gradientUnits="userSpaceOnUse">
<stop stop-color="#FFA800"/>
<stop offset="1"/>
</linearGradient>
<linearGradient id="paint7_linear_856_249" x1="111.5" y1="49" x2="111.5" y2="76" gradientUnits="userSpaceOnUse">
<stop stop-color="#FFA800"/>
<stop offset="1"/>
</linearGradient>
<linearGradient id="paint8_linear_856_249" x1="160.5" y1="49" x2="160.5" y2="76" gradientUnits="userSpaceOnUse">
<stop stop-color="#FFA800"/>
<stop offset="1"/>
</linearGradient>
<linearGradient id="paint9_linear_856_249" x1="209.5" y1="49" x2="209.5" y2="76" gradientUnits="userSpaceOnUse">
<stop stop-color="#FFA800"/>
<stop offset="1"/>
</linearGradient>
<linearGradient id="paint10_linear_856_249" x1="13.5" y1="0" x2="13.5" y2="27" gradientUnits="userSpaceOnUse">
<stop stop-color="#FFA800"/>
<stop offset="1"/>
</linearGradient>
<linearGradient id="paint11_linear_856_249" x1="13.5" y1="49" x2="13.5" y2="76" gradientUnits="userSpaceOnUse">
<stop stop-color="#FFA800"/>
<stop offset="1"/>
</linearGradient>
<linearGradient id="paint12_linear_856_249" x1="62.5" y1="0" x2="62.5" y2="27" gradientUnits="userSpaceOnUse">
<stop stop-color="#FFA800"/>
<stop offset="1"/>
</linearGradient>
<linearGradient id="paint13_linear_856_249" x1="111.5" y1="0" x2="111.5" y2="27" gradientUnits="userSpaceOnUse">
<stop stop-color="#FFA800"/>
<stop offset="1"/>
</linearGradient>
<linearGradient id="paint14_linear_856_249" x1="160.5" y1="0" x2="160.5" y2="27" gradientUnits="userSpaceOnUse">
<stop stop-color="#FFA800"/>
<stop offset="1"/>
</linearGradient>
<linearGradient id="paint15_linear_856_249" x1="209.5" y1="0" x2="209.5" y2="27" gradientUnits="userSpaceOnUse">
<stop stop-color="#FFA800"/>
<stop offset="1"/>
</linearGradient>
<linearGradient id="paint16_linear_856_249" x1="62.5" y1="49" x2="62.5" y2="76" gradientUnits="userSpaceOnUse">
<stop stop-color="#FFA800"/>
<stop offset="1"/>
</linearGradient>
<linearGradient id="paint17_linear_856_249" x1="111.5" y1="49" x2="111.5" y2="76" gradientUnits="userSpaceOnUse">
<stop stop-color="#FFA800"/>
<stop offset="1"/>
</linearGradient>
<linearGradient id="paint18_linear_856_249" x1="160.5" y1="49" x2="160.5" y2="76" gradientUnits="userSpaceOnUse">
<stop stop-color="#FFA800"/>
<stop offset="1"/>
</linearGradient>
<linearGradient id="paint19_linear_856_249" x1="209.5" y1="49" x2="209.5" y2="76" gradientUnits="userSpaceOnUse">
<stop stop-color="#FFA800"/>
<stop offset="1"/>
</linearGradient>
<linearGradient id="paint20_linear_856_249" x1="13.5" y1="98" x2="13.5" y2="125" gradientUnits="userSpaceOnUse">
<stop stop-color="#FFA800"/>
<stop offset="1"/>
</linearGradient>
<linearGradient id="paint21_linear_856_249" x1="62.5" y1="98" x2="62.5" y2="125" gradientUnits="userSpaceOnUse">
<stop stop-color="#FFA800"/>
<stop offset="1"/>
</linearGradient>
<linearGradient id="paint22_linear_856_249" x1="111.5" y1="98" x2="111.5" y2="125" gradientUnits="userSpaceOnUse">
<stop stop-color="#FFA800"/>
<stop offset="1"/>
</linearGradient>
<linearGradient id="paint23_linear_856_249" x1="160.5" y1="98" x2="160.5" y2="125" gradientUnits="userSpaceOnUse">
<stop stop-color="#FFA800"/>
<stop offset="1"/>
</linearGradient>
<linearGradient id="paint24_linear_856_249" x1="209.5" y1="98" x2="209.5" y2="125" gradientUnits="userSpaceOnUse">
<stop stop-color="#FFA800"/>
<stop offset="1"/>
</linearGradient>
<linearGradient id="paint25_linear_856_249" x1="13.5" y1="98" x2="13.5" y2="125" gradientUnits="userSpaceOnUse">
<stop stop-color="#FFA800"/>
<stop offset="1"/>
</linearGradient>
<linearGradient id="paint26_linear_856_249" x1="62.5" y1="98" x2="62.5" y2="125" gradientUnits="userSpaceOnUse">
<stop stop-color="#FFA800"/>
<stop offset="1"/>
</linearGradient>
<linearGradient id="paint27_linear_856_249" x1="111.5" y1="98" x2="111.5" y2="125" gradientUnits="userSpaceOnUse">
<stop stop-color="#FFA800"/>
<stop offset="1"/>
</linearGradient>
<linearGradient id="paint28_linear_856_249" x1="160.5" y1="98" x2="160.5" y2="125" gradientUnits="userSpaceOnUse">
<stop stop-color="#FFA800"/>
<stop offset="1"/>
</linearGradient>
<linearGradient id="paint29_linear_856_249" x1="209.5" y1="98" x2="209.5" y2="125" gradientUnits="userSpaceOnUse">
<stop stop-color="#FFA800"/>
<stop offset="1"/>
</linearGradient>
<linearGradient id="paint30_linear_856_249" x1="13.5" y1="147" x2="13.5" y2="174" gradientUnits="userSpaceOnUse">
<stop stop-color="#FFA800"/>
<stop offset="1"/>
</linearGradient>
<linearGradient id="paint31_linear_856_249" x1="62.5" y1="147" x2="62.5" y2="174" gradientUnits="userSpaceOnUse">
<stop stop-color="#FFA800"/>
<stop offset="1"/>
</linearGradient>
<linearGradient id="paint32_linear_856_249" x1="111.5" y1="147" x2="111.5" y2="174" gradientUnits="userSpaceOnUse">
<stop stop-color="#FFA800"/>
<stop offset="1"/>
</linearGradient>
<linearGradient id="paint33_linear_856_249" x1="160.5" y1="147" x2="160.5" y2="174" gradientUnits="userSpaceOnUse">
<stop stop-color="#FFA800"/>
<stop offset="1"/>
</linearGradient>
<linearGradient id="paint34_linear_856_249" x1="209.5" y1="147" x2="209.5" y2="174" gradientUnits="userSpaceOnUse">
<stop stop-color="#FFA800"/>
<stop offset="1"/>
</linearGradient>
<linearGradient id="paint35_linear_856_249" x1="13.5" y1="147" x2="13.5" y2="174" gradientUnits="userSpaceOnUse">
<stop stop-color="#FFA800"/>
<stop offset="1"/>
</linearGradient>
<linearGradient id="paint36_linear_856_249" x1="62.5" y1="147" x2="62.5" y2="174" gradientUnits="userSpaceOnUse">
<stop stop-color="#FFA800"/>
<stop offset="1"/>
</linearGradient>
<linearGradient id="paint37_linear_856_249" x1="111.5" y1="147" x2="111.5" y2="174" gradientUnits="userSpaceOnUse">
<stop stop-color="#FFA800"/>
<stop offset="1"/>
</linearGradient>
<linearGradient id="paint38_linear_856_249" x1="160.5" y1="147" x2="160.5" y2="174" gradientUnits="userSpaceOnUse">
<stop stop-color="#FFA800"/>
<stop offset="1"/>
</linearGradient>
<linearGradient id="paint39_linear_856_249" x1="209.5" y1="147" x2="209.5" y2="174" gradientUnits="userSpaceOnUse">
<stop stop-color="#FFA800"/>
<stop offset="1"/>
</linearGradient>
<linearGradient id="paint40_linear_856_249" x1="13.5" y1="196" x2="13.5" y2="223" gradientUnits="userSpaceOnUse">
<stop stop-color="#FFA800"/>
<stop offset="1"/>
</linearGradient>
<linearGradient id="paint41_linear_856_249" x1="62.5" y1="196" x2="62.5" y2="223" gradientUnits="userSpaceOnUse">
<stop stop-color="#FFA800"/>
<stop offset="1"/>
</linearGradient>
<linearGradient id="paint42_linear_856_249" x1="111.5" y1="196" x2="111.5" y2="223" gradientUnits="userSpaceOnUse">
<stop stop-color="#FFA800"/>
<stop offset="1"/>
</linearGradient>
<linearGradient id="paint43_linear_856_249" x1="160.5" y1="196" x2="160.5" y2="223" gradientUnits="userSpaceOnUse">
<stop stop-color="#FFA800"/>
<stop offset="1"/>
</linearGradient>
<linearGradient id="paint44_linear_856_249" x1="209.5" y1="196" x2="209.5" y2="223" gradientUnits="userSpaceOnUse">
<stop stop-color="#FFA800"/>
<stop offset="1"/>
</linearGradient>
<linearGradient id="paint45_linear_856_249" x1="13.5" y1="196" x2="13.5" y2="223" gradientUnits="userSpaceOnUse">
<stop stop-color="#FFA800"/>
<stop offset="1"/>
</linearGradient>
<linearGradient id="paint46_linear_856_249" x1="62.5" y1="196" x2="62.5" y2="223" gradientUnits="userSpaceOnUse">
<stop stop-color="#FFA800"/>
<stop offset="1"/>
</linearGradient>
<linearGradient id="paint47_linear_856_249" x1="111.5" y1="196" x2="111.5" y2="223" gradientUnits="userSpaceOnUse">
<stop stop-color="#FFA800"/>
<stop offset="1"/>
</linearGradient>
<linearGradient id="paint48_linear_856_249" x1="160.5" y1="196" x2="160.5" y2="223" gradientUnits="userSpaceOnUse">
<stop stop-color="#FFA800"/>
<stop offset="1"/>
</linearGradient>
<linearGradient id="paint49_linear_856_249" x1="209.5" y1="196" x2="209.5" y2="223" gradientUnits="userSpaceOnUse">
<stop stop-color="#FFA800"/>
<stop offset="1"/>
</linearGradient>
</defs>
</svg>
