<svg width="683" height="683" viewBox="0 0 683 683" fill="none" xmlns="http://www.w3.org/2000/svg">
<path d="M615.923 1.9998C558.457 9.06647 504.857 25.3331 449.657 52.5331C395.123 79.3331 351.39 110.266 307.923 152.8L285.923 174.4L273.257 175.2C202.99 180.266 140.19 202.4 84.5899 241.866C64.5899 256 39.6566 278 36.4566 284.4C32.8566 291.2 35.7899 300.4 42.5899 304C43.7899 304.666 68.4566 308.533 97.3899 312.666C126.19 316.666 151.123 320.533 152.59 321.2C154.857 322.133 154.59 322.8 148.99 328.8C145.657 332.4 142.323 336.666 141.39 338.266C138.723 343.333 139.657 349.866 143.79 355.466C148.457 361.733 324.457 537.333 329.257 540.533C332.99 543.066 340.19 543.333 344.323 541.2C345.923 540.266 350.19 536.933 353.79 533.6C359.79 528 360.457 527.733 361.39 530C361.923 531.466 365.79 556.4 369.923 585.333C374.057 614.267 378.057 638.933 378.723 640.267C380.457 643.467 386.99 646.667 391.923 646.667C398.59 646.667 403.123 643.333 415.257 629.867C470.323 568 501.657 493.2 507.257 409.866L508.19 396.4L529.79 374.533C588.057 315.333 631.523 244.8 658.19 166C674.19 118.4 682.59 71.5998 682.59 28.9331V7.73314L678.723 3.86647L674.857 -0.000196487L652.323 0.133137C640.057 0.26647 623.657 1.06647 615.923 1.9998ZM504.59 127.333C528.857 133.733 548.857 153.733 555.257 178C566.59 221.6 532.59 265.333 487.257 265.333C448.857 265.333 417.257 233.733 417.257 195.333C417.257 163.6 438.857 135.733 469.657 127.333C478.99 124.933 494.857 124.933 504.59 127.333Z" fill="url(#paint0_linear_911_9310)"/>
<path d="M117.657 457.333C98.3232 462.4 81.7898 472.933 71.3898 486.8C56.5898 506.533 35.6565 555.333 13.2565 622.4C-1.81015 667.733 -2.61015 672.267 3.78985 678.8C10.3232 685.2 14.8565 684.4 60.1899 669.333C125.923 647.467 175.923 626.133 194.857 611.867C220.457 592.8 232.99 556.933 225.923 523.467C220.723 498.667 202.323 475.067 179.657 464.133C159.923 454.533 137.523 452.133 117.657 457.333Z" fill="url(#paint1_linear_911_9310)"/>
<defs>
<linearGradient id="paint0_linear_911_9310" x1="123.626" y1="528.16" x2="724.297" y2="-49.7316" gradientUnits="userSpaceOnUse">
<stop offset="0.0416667" stop-color="#FF8A00"/>
<stop offset="1" stop-color="#5CFF58"/>
</linearGradient>
<linearGradient id="paint1_linear_911_9310" x1="31.2138" y1="640.818" x2="242.927" y2="437.513" gradientUnits="userSpaceOnUse">
<stop offset="0.28125" stop-color="#FF8A00"/>
<stop offset="1" stop-color="#5CFF58"/>
</linearGradient>
</defs>
</svg>
