<svg width="151" height="172" viewBox="0 0 151 172" fill="none" xmlns="http://www.w3.org/2000/svg">
<path fill-rule="evenodd" clip-rule="evenodd" d="M75.5 0C68.0579 0 55.6219 2.84875 43.9194 6.02C31.9473 9.245 19.8781 13.0613 12.7811 15.3725C9.81388 16.3492 7.18324 18.1403 5.1914 20.54C3.19956 22.9398 1.92733 25.851 1.52084 28.939C-4.90744 77.0667 10.0092 112.735 28.1076 136.332C35.7825 146.425 44.9336 155.314 55.2552 162.701C59.4185 165.636 63.2798 167.883 66.5586 169.42C69.5786 170.839 72.8251 172 75.5 172C78.1749 172 81.4106 170.839 84.4414 169.42C88.3941 167.505 92.1757 165.257 95.7448 162.701C106.067 155.314 115.218 146.426 122.892 136.332C140.991 112.735 155.907 77.0667 149.479 28.939C149.073 25.8495 147.802 22.9366 145.81 20.535C143.818 18.1334 141.187 16.3403 138.219 15.3618C127.916 11.995 117.534 8.87659 107.081 6.00925C95.3781 2.8595 82.9421 0 75.5 0ZM98.6461 55.3195C99.6588 54.3102 101.032 53.7432 102.464 53.7432C103.896 53.7432 105.27 54.3102 106.282 55.3195C107.295 56.3288 107.864 57.6977 107.864 59.125C107.864 60.5523 107.295 61.9212 106.282 62.9305L73.9253 95.1805C73.4243 95.6811 72.8292 96.0782 72.174 96.3492C71.5189 96.6201 70.8165 96.7596 70.1071 96.7596C69.3978 96.7596 68.6954 96.6201 68.0402 96.3492C67.3851 96.0782 66.79 95.6811 66.289 95.1805L50.1104 79.0555C49.609 78.5558 49.2113 77.9625 48.9399 77.3095C48.6686 76.6566 48.5289 75.9567 48.5289 75.25C48.5289 74.5433 48.6686 73.8434 48.9399 73.1905C49.2113 72.5375 49.609 71.9442 50.1104 71.4445C50.6119 70.9448 51.2071 70.5483 51.8622 70.2779C52.5173 70.0074 53.2195 69.8682 53.9286 69.8682C54.6377 69.8682 55.3398 70.0074 55.9949 70.2779C56.6501 70.5483 57.2453 70.9448 57.7467 71.4445L70.1071 83.7748L98.6461 55.3195Z" fill="url(#paint0_linear_942_44)"/>
<defs>
<linearGradient id="paint0_linear_942_44" x1="20.6837" y1="31.5203" x2="178.275" y2="164.415" gradientUnits="userSpaceOnUse">
<stop offset="0.0416667" stop-color="#FF8A00"/>
<stop offset="1" stop-color="#5CFF58"/>
</linearGradient>
</defs>
</svg>
