<svg width="50" height="58" viewBox="0 0 50 58" fill="none" xmlns="http://www.w3.org/2000/svg">
<path fill-rule="evenodd" clip-rule="evenodd" d="M25 0C22.5357 0 18.4179 0.947648 14.5429 2.00258C10.5786 3.07539 6.58216 4.34488 4.23216 5.11372C3.24963 5.43861 2.37856 6.03443 1.71901 6.83273C1.05946 7.63103 0.638188 8.59942 0.50359 9.62667C-1.62498 25.6366 3.3143 37.5018 9.30715 45.3512C11.8485 48.709 14.8787 51.6659 18.2964 54.1232C19.675 55.0995 20.9536 55.8469 22.0393 56.3582C23.0393 56.8303 24.1143 57.2165 25 57.2165C25.8857 57.2165 26.9571 56.8303 27.9607 56.3582C29.2696 55.7213 30.5217 54.9735 31.7036 54.1232C35.1214 51.666 38.1516 48.709 40.6928 45.3512C46.6857 37.5018 51.625 25.6366 49.4964 9.62667C49.362 8.59893 48.9409 7.62996 48.2814 6.83105C47.6218 6.03214 46.7506 5.43567 45.7678 5.11015C42.3564 3.99018 38.9185 2.95283 35.4571 1.999C31.5821 0.951224 27.4643 0 25 0ZM32.6643 18.4023C32.9996 18.0665 33.4544 17.8779 33.9286 17.8779C34.4028 17.8779 34.8575 18.0665 35.1928 18.4023C35.5282 18.738 35.7165 19.1934 35.7165 19.6682C35.7165 20.143 35.5282 20.5983 35.1928 20.9341L24.4786 31.6622C24.3127 31.8287 24.1156 31.9608 23.8987 32.0509C23.6817 32.1411 23.4492 32.1875 23.2143 32.1875C22.9794 32.1875 22.7468 32.1411 22.5299 32.0509C22.3129 31.9608 22.1159 31.8287 21.95 31.6622L16.5929 26.2981C16.4268 26.1319 16.2951 25.9345 16.2053 25.7173C16.1154 25.5001 16.0692 25.2673 16.0692 25.0322C16.0692 24.7971 16.1154 24.5643 16.2053 24.3471C16.2951 24.1299 16.4268 23.9325 16.5929 23.7663C16.7589 23.6001 16.956 23.4682 17.1729 23.3782C17.3898 23.2882 17.6223 23.2419 17.8571 23.2419C18.0919 23.2419 18.3244 23.2882 18.5414 23.3782C18.7583 23.4682 18.9554 23.6001 19.1214 23.7663L23.2143 27.868L32.6643 18.4023Z" fill="url(#paint0_linear_947_102)"/>
<defs>
<linearGradient id="paint0_linear_947_102" x1="25" y1="0" x2="25" y2="57.2165" gradientUnits="userSpaceOnUse">
<stop stop-color="#005809"/>
<stop offset="1" stop-color="#00A72F"/>
</linearGradient>
</defs>
</svg>
