<svg width="641" height="641" viewBox="0 0 641 641" fill="none" xmlns="http://www.w3.org/2000/svg">
<path d="M418.734 34.7336C384.6 68.7336 384.334 69.1336 384.334 74.7336C384.334 84.067 387.134 85.667 403 85.667H416.334V96.3336V107L227.4 107.267L38.3335 107.667L30.3335 111.534C20.0669 116.6 9.93353 126.734 4.86686 137L1.0002 145L0.600195 173.934L0.200195 203H10.7335H21.4002L21.9335 178.6C22.3335 157.534 22.8669 153.534 25.2669 148.334C28.6002 141.134 35.1335 134.6 42.3335 131.4C47.4002 129.134 57.8002 129 232.067 128.6L416.334 128.334V229.667V331H427H437.667V200.6C437.667 92.867 437.4 69.8003 435.8 67.667C434.867 66.3336 431.667 64.867 428.467 64.467L423 63.667L441 45.667L459 27.667L477 45.667L495 63.667L489.534 64.467C486.334 64.867 483.134 66.3336 482.2 67.667C480.6 69.8003 480.334 92.067 480.334 195.267V320.334H491H501.667V224.2V128.067L526.067 128.6C553.267 129.134 558.467 130.467 566.6 139.134C576.2 149.267 575.667 142.067 576.067 263.934L576.467 373.667H587.134H597.667L597.4 259.267L597 145L593.134 137C590.867 132.6 586.067 125.934 582.467 122.2C578.734 118.6 572.067 113.8 567.667 111.534L559.667 107.667L530.734 107.267L501.667 106.867V96.2003V85.667H515C530.867 85.667 533.667 84.067 533.667 74.7336C533.667 69.1336 533.4 68.7336 499.267 34.7336L465 0.333639H459H453L418.734 34.7336Z" fill="url(#paint0_linear_914_63)"/>
<path d="M523 11.5335V22.6002L529.533 23.4002C546.6 25.4002 561.933 40.7335 563.933 57.8002L564.733 64.3335H575.8H587V58.6002C587 30.3335 557.133 0.333493 528.867 0.333493H523V11.5335Z" fill="url(#paint1_linear_914_63)"/>
<path d="M53.667 160.333V171H64.3337H75.0003V160.333V149.667H64.3337H53.667V160.333Z" fill="url(#paint2_linear_914_63)"/>
<path d="M96.3335 160.333V171H107H117.667V160.333V149.667H107H96.3335V160.333Z" fill="url(#paint3_linear_914_63)"/>
<path d="M139 160.333V171H149.667H160.333V160.333V149.667H149.667H139V160.333Z" fill="url(#paint4_linear_914_63)"/>
<path d="M312.334 163C309.667 165.667 309.667 167.4 309.667 285.667V405.667H299H288.334V323C288.334 242.067 288.334 240.333 285.667 237.667C283.134 235.133 281.267 235 245.667 235C210.067 235 208.2 235.133 205.667 237.667C203 240.333 203 242.067 203 323V405.667H192.334H181.667V360.333C181.667 316.733 181.534 314.867 179 312.333C176.467 309.8 174.6 309.667 139 309.667C103.4 309.667 101.534 309.8 99.0003 312.333C96.467 314.867 96.3337 316.733 96.3337 360.333V405.667H75.0003H53.667V416.333V427H192.334H331V304.333V181.667H352.334H373.667V267V352.333H384.334H395V259C395 167.4 395 165.667 392.334 163C389.8 160.467 387.934 160.333 352.334 160.333C316.734 160.333 314.867 160.467 312.334 163ZM267 331V405.667H245.667H224.334V331V256.333H245.667H267V331ZM160.334 368.333V405.667H139H117.667V368.333V331H139H160.334V368.333Z" fill="url(#paint5_linear_914_63)"/>
<path d="M0.600163 359.933L1.00016 495.667L4.86683 503.667C9.9335 513.933 20.0668 524.067 30.3335 529.133L38.3335 533L134.067 533.4C186.6 533.533 229.667 534.2 229.667 534.733C229.8 535.267 224.2 554.467 217.4 577.267L205 619H193.4H181.667V629.667V640.333H299H416.334V629.667V619H404.734H393L386.467 596.6C382.867 584.333 379.534 573.933 379.134 573.4C378.334 572.467 360.467 577.267 358.6 579C357.934 579.533 359.934 588.2 362.867 598.067C365.934 608.067 368.334 616.733 368.334 617.533C368.334 619.267 229.667 619.667 229.667 617.933C229.534 617.4 235.134 598.2 241.934 575.4L254.334 533.667H292.734H331V523V512.467L189.267 512.067C48.0668 511.667 47.6668 511.667 41.6668 508.867C29.8002 503.267 23.8002 493.933 22.2002 478.467L21.2668 469.667H170.867H320.334V459V448.333H171H21.6668V336.333V224.333H11.0002H0.333496L0.600163 359.933Z" fill="url(#paint6_linear_914_63)"/>
<path d="M453.667 341.8C434.067 344.067 411.134 353.134 394.2 365C389.8 368.2 381.4 375.8 375.534 382.067C355.667 403.134 344.867 426.734 341.667 456.467C335.8 509.667 364.6 561.534 413 585C433.8 595.134 442.6 597 469.667 597C495.934 597 504.334 595.267 524.6 586.067L535.134 581.267L562.734 608.734C580.467 626.334 592.067 637 595.267 638.334C601.667 640.867 615 640.867 621.4 638.2C627.934 635.534 634.734 628.867 637.8 622.334C640.867 615.667 641.134 602.2 638.334 595.267C637 592.067 626.334 580.467 608.734 562.734L581.267 535.134L586.067 524.6C595.267 504.334 597 495.934 597 469.667C597 443.667 595.267 434.734 586.467 415.534C563 365 509.267 335 453.667 341.8ZM495.667 367C506.467 369.667 524.2 378.6 534.6 386.467C547 396.067 556.334 407.534 563.8 422.334C582.2 459.667 578.2 501.534 552.734 534.734C539 552.6 514.867 567.934 492.467 573C478.6 576.067 458.467 575.8 445 572.334C431.134 568.867 412.467 559.534 402.067 551C385.667 537.4 371.134 513.667 366.467 492.734C363.4 479.134 363.667 458.067 367 444.867C370.467 431.267 379.8 412.467 388.067 402.467C413.934 371.4 456.067 357.534 495.667 367ZM617.134 604.734C618.734 607.8 618.867 609 617.4 612.067C615 617 609.4 619.667 605.4 617.534C603.667 616.734 591.4 605.134 578.067 591.934L553.667 567.667L560.6 560.734L567.667 553.667L591.4 577.267C604.467 590.334 616.067 602.734 617.134 604.734Z" fill="url(#paint7_linear_914_63)"/>
<path d="M448.067 386.467C418.867 393.4 394.067 418.2 386.467 447.934C383.8 458.2 383.8 479.667 386.333 490.867C393.267 520.067 419.267 546.067 448.467 553C459.4 555.534 479.933 555.534 490.867 553C513 547.667 534.733 530.734 545.4 510.2C552.333 496.6 555 485.8 555 469.667C555 453.534 552.333 442.734 545.4 429.134C534.733 408.6 513 391.667 490.867 386.334C480.333 383.934 458.333 383.934 448.067 386.467ZM487 409.267C497.533 412.2 503.8 415.8 511.8 423.267C525.8 436.467 532.333 451.267 532.333 469.534C532.333 486.734 527.133 500.067 515.267 512.6C503 525.667 487.8 532.334 469.8 532.334C451.4 532.334 436.867 526.067 424.067 512.6C412.2 500.2 407 487.134 407 469.667C407 452.067 412.2 439.134 424.2 426.6C441.267 408.6 463 402.6 487 409.267Z" fill="url(#paint8_linear_914_63)"/>
<path d="M452.6 429.8C439 435.134 427 451.534 427 465V469.667H438.333C449.133 469.667 449.667 469.534 449.667 466.6C449.667 459.667 459.667 449.667 466.733 449.667C469.533 449.667 469.667 449.134 469.667 438.334V427L464.733 427.134C461.933 427.134 456.467 428.334 452.6 429.8Z" fill="url(#paint9_linear_914_63)"/>
<defs>
<linearGradient id="paint0_linear_914_63" x1="82.0402" y1="305.251" x2="399.294" y2="-182.449" gradientUnits="userSpaceOnUse">
<stop offset="0.0416667" stop-color="#FF8A00"/>
<stop offset="1" stop-color="#5CFF58"/>
</linearGradient>
<linearGradient id="paint1_linear_914_63" x1="531.767" y1="52.605" x2="591.211" y2="-4.49517" gradientUnits="userSpaceOnUse">
<stop offset="0.0416667" stop-color="#FF8A00"/>
<stop offset="1" stop-color="#5CFF58"/>
</linearGradient>
<linearGradient id="paint2_linear_914_63" x1="56.5892" y1="167.091" x2="76.4039" y2="148.057" gradientUnits="userSpaceOnUse">
<stop offset="0.0416667" stop-color="#FF8A00"/>
<stop offset="1" stop-color="#5CFF58"/>
</linearGradient>
<linearGradient id="paint3_linear_914_63" x1="99.2557" y1="167.091" x2="119.07" y2="148.057" gradientUnits="userSpaceOnUse">
<stop offset="0.0416667" stop-color="#FF8A00"/>
<stop offset="1" stop-color="#5CFF58"/>
</linearGradient>
<linearGradient id="paint4_linear_914_63" x1="141.922" y1="167.091" x2="161.737" y2="148.057" gradientUnits="userSpaceOnUse">
<stop offset="0.0416667" stop-color="#FF8A00"/>
<stop offset="1" stop-color="#5CFF58"/>
</linearGradient>
<linearGradient id="paint5_linear_914_63" x1="100.422" y1="378.131" x2="343.108" y2="79.7432" gradientUnits="userSpaceOnUse">
<stop offset="0.0416667" stop-color="#FF8A00"/>
<stop offset="1" stop-color="#5CFF58"/>
</linearGradient>
<linearGradient id="paint6_linear_914_63" x1="57.3165" y1="564.098" x2="443.704" y2="192.947" gradientUnits="userSpaceOnUse">
<stop offset="0.0416667" stop-color="#FF8A00"/>
<stop offset="1" stop-color="#5CFF58"/>
</linearGradient>
<linearGradient id="paint7_linear_914_63" x1="381.919" y1="585.355" x2="659.981" y2="318.265" gradientUnits="userSpaceOnUse">
<stop offset="0.0416667" stop-color="#FF8A00"/>
<stop offset="1" stop-color="#5CFF58"/>
</linearGradient>
<linearGradient id="paint8_linear_914_63" x1="407.811" y1="523.682" x2="566.043" y2="371.512" gradientUnits="userSpaceOnUse">
<stop offset="0.0416667" stop-color="#FF8A00"/>
<stop offset="1" stop-color="#5CFF58"/>
</linearGradient>
<linearGradient id="paint9_linear_914_63" x1="432.844" y1="461.848" x2="472.474" y2="423.781" gradientUnits="userSpaceOnUse">
<stop offset="0.0416667" stop-color="#FF8A00"/>
<stop offset="1" stop-color="#5CFF58"/>
</linearGradient>
</defs>
</svg>
