<svg width="79" height="79" viewBox="0 0 79 79" fill="none" xmlns="http://www.w3.org/2000/svg">
<g filter="url(#filter0_d_942_45)">
<path d="M79 37.5C79 47.4456 75.0491 56.9839 68.0165 64.0165C60.9839 71.0491 51.4456 75 41.5 75C31.5544 75 22.0161 71.0491 14.9835 64.0165C7.95088 56.9839 4 47.4456 4 37.5C4 27.5544 7.95088 18.0161 14.9835 10.9835C22.0161 3.95088 31.5544 0 41.5 0C51.4456 0 60.9839 3.95088 68.0165 10.9835C75.0491 18.0161 79 27.5544 79 37.5ZM60.3906 23.2969C60.0558 22.9632 59.6571 22.7005 59.2184 22.5244C58.7797 22.3484 58.3101 22.2626 57.8375 22.2722C57.3649 22.2819 56.899 22.3867 56.4679 22.5805C56.0367 22.7742 55.6491 23.053 55.3281 23.4L39.0484 44.1422L29.2375 34.3266C28.5711 33.7056 27.6896 33.3675 26.7788 33.3836C25.868 33.3996 24.999 33.7686 24.3549 34.4127C23.7108 35.0568 23.3418 35.9258 23.3257 36.8366C23.3097 37.7474 23.6477 38.6289 24.2687 39.2953L36.6719 51.7031C37.006 52.0366 37.4039 52.2995 37.8418 52.4759C38.2797 52.6523 38.7487 52.7387 39.2207 52.73C39.6927 52.7212 40.1581 52.6175 40.5892 52.425C41.0203 52.2324 41.4081 51.9551 41.7297 51.6094L60.4422 28.2188C61.0801 27.5555 61.4325 26.6685 61.4238 25.7482C61.415 24.828 61.0458 23.9479 60.3953 23.2969H60.3906Z" fill="url(#paint0_linear_942_45)"/>
</g>
<defs>
<filter id="filter0_d_942_45" x="0" y="0" width="79" height="79" filterUnits="userSpaceOnUse" color-interpolation-filters="sRGB">
<feFlood flood-opacity="0" result="BackgroundImageFix"/>
<feColorMatrix in="SourceAlpha" type="matrix" values="0 0 0 0 0 0 0 0 0 0 0 0 0 0 0 0 0 0 127 0" result="hardAlpha"/>
<feOffset dx="-2" dy="2"/>
<feGaussianBlur stdDeviation="1"/>
<feComposite in2="hardAlpha" operator="out"/>
<feColorMatrix type="matrix" values="0 0 0 0 0 0 0 0 0 0 0 0 0 0 0 0 0 0 0.33 0"/>
<feBlend mode="normal" in2="BackgroundImageFix" result="effect1_dropShadow_942_45"/>
<feBlend mode="normal" in="SourceGraphic" in2="effect1_dropShadow_942_45" result="shape"/>
</filter>
<linearGradient id="paint0_linear_942_45" x1="41.5" y1="0" x2="41.5" y2="75" gradientUnits="userSpaceOnUse">
<stop stop-color="#009A2B"/>
<stop offset="1" stop-color="#00FF47"/>
</linearGradient>
</defs>
</svg>
